<svg width="100" height="100" viewBox="0 0 100 100" xmlns="http://www.w3.org/2000/svg">
  <rect width="100" height="100" rx="16" fill="#0b1f3a"/>
  <text x="50" y="52" font-family="Georgia,serif" font-size="52" font-weight="700" fill="white" text-anchor="middle" dominant-baseline="middle">W</text>
  <clipPath id="wlogoFav"><rect width="100" height="100" rx="16"/></clipPath>
  <g clip-path="url(#wlogoFav)">
    <path d="M-10 68 Q15 50 40 68 Q65 86 90 68 Q115 50 140 68 L140 110 L-10 110Z" fill="#1a4a7a"/>
    <path d="M-10 76 Q15 58 40 76 Q65 94 90 76 Q115 58 140 76 L140 110 L-10 110Z" fill="#2563a8"/>
    <path d="M-10 84 Q15 66 40 84 Q65 102 90 84 Q115 66 140 84 L140 110 L-10 110Z" fill="#3b82c4"/>
    <path d="M-10 92 Q15 74 40 92 Q65 110 90 92 Q115 74 140 92 L140 110 L-10 110Z" fill="#5b9fd4"/>
    <path d="M-10 68 Q15 50 40 68 Q65 86 90 68 Q115 50 140 68" fill="none" stroke="#2563a8" stroke-width="1.5" stroke-linecap="round"/>
    <path d="M-10 76 Q15 58 40 76 Q65 94 90 76 Q115 58 140 76" fill="none" stroke="#7dd3fc" stroke-width="2" stroke-linecap="round"/>
    <path d="M-10 84 Q15 66 40 84 Q65 102 90 84 Q115 66 140 84" fill="none" stroke="#bfdbfe" stroke-width="1.5" stroke-linecap="round"/>
    <path d="M-10 92 Q15 74 40 92 Q65 110 90 92 Q115 74 140 92" fill="none" stroke="#93c5fd" stroke-width="1.2" stroke-linecap="round"/>
  </g>
</svg>
